<?xml version="1.0" encoding="iso-8859-1"?>
<!-- Uploaded to: SVG Repo, www.svgrepo.com, Generator: SVG Repo Mixer Tools -->
<svg fill="#000000" height="800px" width="800px" version="1.1" id="Layer_1" xmlns="http://www.w3.org/2000/svg" xmlns:xlink="http://www.w3.org/1999/xlink" 
	 viewBox="0 0 512.001 512.001" xml:space="preserve">
<g>
	<g>
		<path d="M389.197,0C329.85,0,281.528,43.815,273.543,100.135H22.573c-14.512,0-22.097,17.301-12.308,27.98
			c2.702,2.947,175.865,191.853,179.28,195.579v154.912h-50.092c-9.221,0-16.697,7.476-16.697,16.697s7.476,16.697,16.697,16.697
			h133.578c9.221,0,16.697-7.476,16.697-16.697s-7.476-16.697-16.697-16.697H222.94V323.694l100.82-109.986
			c19.757,13.402,42.598,20.067,65.414,20.066c29.956-0.001,59.865-11.489,82.67-34.295C545.33,125.992,492.829,0,389.197,0z
			 M389.197,33.394c16.639,0,32.517,4.819,46.043,13.782l-46.043,46.043l-46.043-46.043
			C356.679,38.213,372.557,33.394,389.197,33.394z M319.541,70.789l29.345,29.346h-41.467
			C309.531,89.635,313.634,79.701,319.541,70.789z M206.242,292.49l-82.967-90.51c15.138-5.872,32.322-5.173,46.956,2.142
			c25.582,12.793,56.136,12.794,81.723,0c12.25-6.125,26.291-7.622,39.421-4.504L206.242,292.49z M315.876,172.889
			c-24.978-11.406-54.217-10.956-78.855,1.365c-16.235,8.116-35.62,8.116-51.855,0c-25.587-12.793-56.137-12.793-81.723-0.001
			c-1.293,0.647-2.619,1.227-3.957,1.775L60.53,133.53h291.425L315.876,172.889z M346.679,188.705l43.415-47.362l45.146,45.146
			C408.628,204.146,374.113,205.005,346.679,188.705z M458.849,162.871l-46.039-46.039l46.039-46.039
			C477.238,98.597,477.238,135.068,458.849,162.871z"/>
	</g>
</g>
</svg>