<?xml version="1.0" encoding="iso-8859-1"?>
<!-- Uploaded to: SVG Repo, www.svgrepo.com, Generator: SVG Repo Mixer Tools -->
<svg fill="#000000" height="800px" width="800px" version="1.1" id="Layer_1" xmlns="http://www.w3.org/2000/svg" xmlns:xlink="http://www.w3.org/1999/xlink" 
	 viewBox="0 0 511.999 511.999" xml:space="preserve">
<g>
	<g>
		<path d="M105.839,434.873c-8.941,0-16.217,7.275-16.217,16.217c0,8.941,7.274,16.217,16.217,16.217
			c8.941,0,16.217-7.275,16.217-16.217C122.056,442.148,114.78,434.873,105.839,434.873z"/>
	</g>
</g>
<g>
	<g>
		<path d="M448.799,202.569L448.799,202.569v-9.138c0-77.126-59.717-140.562-135.34-146.51V0H198.541v46.921
			c-75.623,5.948-135.34,69.385-135.34,146.51v9.137H28.412v30.42h34.789v9.137c0,48.261,23.385,91.16,59.415,117.97l-9.74,30.503
			c-2.31-0.268-4.655-0.42-7.036-0.42c-33.586,0-60.911,27.324-60.911,60.91c0,33.586,27.325,60.91,60.911,60.91
			c33.586,0,60.91-27.324,60.91-60.91c0-1.014-0.027-2.022-0.077-3.024h218.859l17.044,53.353l28.977-9.257l-42.185-132.053
			c36.04-26.81,59.432-69.715,59.432-117.983v-9.137h34.788v-30.42H448.799z M228.961,30.42h54.079v16.042h-54.079V30.42z
			 M105.839,481.58c-16.813,0-30.492-13.678-30.492-30.491s13.679-30.491,30.492-30.491s30.491,13.678,30.491,30.491
			S122.652,481.58,105.839,481.58z M156.711,417.645c-4.118-6.243-9.353-11.681-15.418-16.038l8.187-25.638
			c18.51,8.427,39.062,13.126,60.691,13.126h91.658c21.622,0,42.168-4.696,60.674-13.118l13.311,41.668H156.711z M418.38,242.125
			c0,64.267-52.284,116.55-116.551,116.55H210.17c-64.266,0-116.55-52.283-116.55-116.55v-9.137H418.38V242.125z M418.38,202.569
			H93.62v-9.137c0-64.267,52.284-116.55,116.55-116.55h91.658c64.267,0,116.551,52.283,116.551,116.55V202.569z"/>
	</g>
</g>
</svg>