<?xml version="1.0" encoding="iso-8859-1"?>
<!-- Uploaded to: SVG Repo, www.svgrepo.com, Generator: SVG Repo Mixer Tools -->
<svg fill="#000000" height="800px" width="800px" version="1.1" id="Layer_1" xmlns="http://www.w3.org/2000/svg" xmlns:xlink="http://www.w3.org/1999/xlink" 
	 viewBox="0 0 511.999 511.999" xml:space="preserve">
<g>
	<g>
		<path d="M477.572,249.562l12.458-12.687l-5.725-10.249c-1.646-2.947-39.161-68.712-113.196-87.894l-4.151-4.538
			c-14.046-15.352-37.257-26.294-68.988-32.521c-22.471-4.41-41.164-4.8-41.949-4.814l-0.288-0.006l-0.288,0.006
			c-0.785,0.015-19.477,0.404-41.949,4.814c-31.731,6.226-54.942,17.168-68.987,32.521l-4.156,4.543
			c-74.021,19.189-111.531,84.942-113.176,87.889l-5.725,10.249L34.439,250.1C20.442,272.207-6.704,323.641,1.522,379.578
			c3.237,22.011,14.091,30.416,22.626,33.59c3.639,1.354,7.424,1.978,11.323,1.978c25.091-0.001,54.953-25.806,81.722-48.942
			c5.365-4.637,11.938-10.316,17.107-14.416l11.999,12.219l42.192-25.614l1.418,5.653h131.648l1.42-5.661l42.206,25.621
			l12.533-12.763c5.166,4.1,11.729,9.772,17.089,14.404c26.772,23.136,56.629,48.94,81.721,48.94c3.898,0,7.685-0.624,11.323-1.977
			c8.535-3.174,19.389-11.578,22.626-33.591C518.702,323.098,491.573,271.679,477.572,249.562z M96.697,342.487
			c-12.203,10.546-26.034,22.498-38.797,31.047c-15.352,10.283-21.442,10.39-22.638,10.273c-0.448-0.589-1.853-2.841-2.727-8.791
			c-6.024-40.959,12.381-80.747,24.595-101.779l55.08,56.089C107.808,332.91,102.733,337.271,96.697,342.487z M151.263,324.323
			l-90.385-92.039c11.96-16.664,40.727-50.271,85.274-62.652l34.357,136.936L151.263,324.323z M297.106,312.7h-82.725
			l-40.816-162.675c22.213-16.736,65.566-21.44,82.182-21.818c16.602,0.352,59.921,5.008,82.172,21.822l-5.4,21.524L297.106,312.7z
			 M362.249,322.257l-2.028,2.066l-29.258-17.763l7.739-30.847l26.614-106.077c44.301,12.36,73.212,46.005,85.257,62.68
			L362.249,322.257z M479.465,374.458c-0.875,5.951-2.279,8.202-2.727,8.791c-1.194,0.121-7.283,0.011-22.637-10.272
			c-12.763-8.549-26.594-20.501-38.796-31.047c-6.036-5.217-11.111-9.578-15.514-13.162l55.113-56.121
			C467.124,293.601,485.52,333.284,479.465,374.458z"/>
	</g>
</g>
</svg>