<?xml version="1.0" encoding="iso-8859-1"?>
<!-- Uploaded to: SVG Repo, www.svgrepo.com, Generator: SVG Repo Mixer Tools -->
<!DOCTYPE svg PUBLIC "-//W3C//DTD SVG 1.1//EN" "http://www.w3.org/Graphics/SVG/1.1/DTD/svg11.dtd">
<svg fill="#000000" version="1.1" id="Capa_1" xmlns="http://www.w3.org/2000/svg" xmlns:xlink="http://www.w3.org/1999/xlink" 
	 width="800px" height="800px" viewBox="0 0 43.364 43.364"
	 xml:space="preserve">
<g>
	<g>
		<polygon points="31.458,19.3 31.886,19.3 32.453,19.245 32.746,18.897 32.435,18.776 32.265,18.579 32.008,18.165 31.886,17.579 
			31.405,17.677 31.269,17.883 31.269,18.116 31.501,18.275 31.831,18.483 31.861,18.72 31.507,18.793 		"/>
		<polygon points="30.77,18.329 30.477,18.799 30.477,19.104 30.818,19.104 31.422,18.677 31.447,18.36 31.164,18.238 		"/>
		<path d="M23.207,20.248h-0.421v0.216h0.102c0,0,0.005,0.047,0.015,0.106l0.257-0.021l0.162-0.1l0.042-0.202l0.209-0.019
			l0.082-0.17l-0.191-0.039l-0.167,0.003L23.207,20.248z"/>
		<polygon points="22.193,20.63 22.498,20.605 22.531,20.392 22.346,20.248 22.209,20.419 		"/>
		<path d="M40.51,27.2c-0.005-0.469-0.029-0.933-0.073-1.391c-0.146-1.524-0.513-2.985-1.06-4.355
			c-0.041-0.103-0.079-0.206-0.12-0.307c-0.729-1.72-1.752-3.284-3.002-4.636c-0.082-0.089-0.165-0.175-0.249-0.262
			c-0.237-0.244-0.478-0.484-0.731-0.714c-2.844-2.59-6.621-4.171-10.762-4.171c-0.585,0-1.16,0.039-1.729,0.101
			c-0.123,0.473-0.276,0.934-0.459,1.385c0.715-0.107,1.444-0.169,2.188-0.169c3.712,0,7.106,1.388,9.694,3.668l-0.174,0.313
			l-0.679,0.265l-0.283,0.31l0.064,0.362l0.35,0.048l0.212,0.526l0.602-0.242l0.1,0.704h-0.182l-0.496-0.073l-0.548,0.092
			l-0.531,0.75l-0.759,0.12l-0.11,0.649l0.32,0.076l-0.092,0.418l-0.755-0.152l-0.692,0.152l-0.146,0.384l0.119,0.809l0.405,0.189
			l0.682-0.004l0.459-0.042l0.142-0.365l0.717-0.935l0.475,0.097l0.466-0.421l0.086,0.329l1.146,0.772l-0.14,0.188l-0.517-0.028
			l0.198,0.282l0.318,0.07l0.373-0.155l-0.007-0.449l0.166-0.083l-0.133-0.141L34.6,20.738l-0.202-0.566h0.637l0.202,0.201
			l0.548,0.472l0.022,0.57l0.567,0.604l0.211-0.828l0.393-0.213l0.073,0.677l0.384,0.422l0.766-0.015
			c0.147,0.381,0.28,0.77,0.396,1.164l-0.082,0.075h-1.171L36.63,22.77l-0.75,0.072v0.459h-0.239l-0.255-0.184l-1.3-0.329v-0.842
			l-1.647,0.129l-0.512,0.272h-0.654l-0.32-0.032l-0.794,0.441v0.829l-1.622,1.172l0.134,0.5H29l-0.087,0.477l-0.231,0.088
			l-0.012,1.244l1.403,1.599h0.609l0.038-0.099h1.099l0.315-0.292h0.624l0.341,0.342l0.928,0.098l-0.123,1.232l1.03,1.817
			l-0.542,1.037l0.037,0.488l0.428,0.427v1.174l0.561,0.755v0.977h0.485c-2.695,3.31-6.8,5.429-11.39,5.429
			c-8.097,0-14.684-6.588-14.684-14.685c0-1.526,0.235-2.999,0.669-4.385l-0.201-0.298c-0.067-0.099-0.334-0.486-0.719-1.02
			c-0.681,1.772-1.065,3.69-1.065,5.701c0,8.822,7.178,16,16,16c6.206,0,11.594-3.555,14.246-8.73
			c0.567-1.107,1.009-2.288,1.307-3.522c0.075-0.313,0.141-0.631,0.197-0.949c0.161-0.909,0.249-1.843,0.249-2.797
			C40.513,27.309,40.511,27.254,40.51,27.2z M35.626,18.552l-1.007-0.009l-0.063-0.21l0.631-0.321l0.003-0.714
			c0.251,0.266,0.494,0.541,0.726,0.825L35.626,18.552z M37.784,21.414L37.5,21.453v-0.648l0.092-0.104
			c0.121,0.236,0.236,0.477,0.344,0.72L37.784,21.414z M38.755,24.043l0.047-0.055c0.021,0.084,0.039,0.166,0.06,0.251
			L38.755,24.043z"/>
		<path d="M20.8,15.754l-0.209,0.013c-0.698,0.847-1.508,1.605-2.441,2.216c-0.104,0.163-0.212,0.339-0.321,0.517l0.145,0.034
			l-0.121,0.468l-0.375,0.118l-0.011-0.023c-0.799,1.331-1.625,2.795-1.939,3.357l-0.846,1.524l-1.126,2.028l0.094,0.144
			l1.282,0.317v-0.207l0.512,0.073L15.395,26.7l0.403,0.072l0.622,0.17l0.878,1.003l1.123,0.084l0.11,0.916l-0.769,0.536
			l-0.036,0.817l-0.11,0.501l1.11,1.391l0.085,0.478c0,0,0.403,0.108,0.452,0.108c0.048,0,0.903,0.646,0.903,0.646v2.514
			l0.305,0.086l-0.208,1.159l0.512,0.685l-0.094,1.148l0.677,1.19l0.87,0.759l0.874,0.017l0.085-0.28l-0.643-0.541l0.038-0.269
			l0.115-0.33l0.024-0.335l-0.434-0.012l-0.219-0.276l0.361-0.348l0.048-0.262l-0.402-0.116l0.024-0.243l0.574-0.087l0.873-0.42
			l0.293-0.537l0.916-1.17l-0.208-0.917l0.282-0.488l0.842,0.025l0.567-0.448l0.183-1.767l0.629-0.799l0.109-0.514l-0.573-0.184
			l-0.379-0.621l-1.295-0.011l-1.025-0.392l-0.048-0.73l-0.342-0.6l-0.927-0.013l-0.538-0.842l-0.476-0.231l-0.023,0.257
			l-0.866,0.052l-0.317-0.442l-0.903-0.183l-0.745,0.859l-1.171-0.198l-0.086-1.319l-0.854-0.146l0.342-0.646l-0.099-0.375
			l-1.123,0.752l-0.707-0.087l-0.251-0.552l0.155-0.569l0.389-0.718l0.896-0.454l1.732-0.001l-0.005,0.528l0.623,0.29l-0.05-0.901
			l0.449-0.451l0.906-0.595l0.062-0.419l0.903-0.94l0.96-0.531l-0.084-0.069l0.65-0.612l0.238,0.063l0.109,0.137l0.247-0.273
			l0.061-0.026l-0.271-0.039l-0.274-0.09v-0.266l0.146-0.12h0.322l0.146,0.064l0.127,0.257l0.155-0.023v-0.025l0.045,0.015
			l0.45-0.069l0.063-0.221l0.256,0.064v0.238l-0.238,0.164h0.001l0.034,0.262l0.815,0.252c0,0,0,0.003,0.001,0.01l0.188-0.017
			l0.013-0.353l-0.646-0.295l-0.036-0.17l0.537-0.183l0.022-0.513l-0.561-0.342l-0.037-0.865l-0.77,0.377h-0.28l0.074-0.658
			l-1.048-0.248l-0.433,0.326v0.998l-0.778,0.247l-0.31,0.651l-0.338,0.055v-0.831l-0.732-0.102l-0.365-0.238l-0.148-0.539
			l1.31-0.766l0.64-0.196l0.064,0.432l0.357-0.02l0.028-0.216l0.373-0.054l0.006-0.076l-0.16-0.066l-0.037-0.228l0.458-0.039
			l0.277-0.289l0.015-0.021l0.003,0.002l0.084-0.088l0.966-0.12l0.427,0.362l-1.118,0.595l1.422,0.336l0.184-0.476h0.623l0.22-0.415
			l-0.438-0.11V15.45l-1.379-0.61l-0.953,0.11l-0.536,0.28l0.037,0.684l-0.561-0.086L21.35,15.45l0.538-0.488l-0.648-0.031
			c-0.113,0.167-0.247,0.318-0.369,0.479L20.8,15.754z M18.274,21.022l-0.256-0.136l0.055-0.366l0.338-0.365h0.485L18.274,21.022z
			 M19.574,21.022l-0.21,0.211h-0.467l0.072-0.319l0.22-0.019l0.046-0.11l0.338-0.046L19.574,21.022L19.574,21.022z M19.684,20.447
			l-0.22,0.142l-0.274,0.051c0,0,0-0.439,0-0.484h0.494V20.447z M20.1,20.108l0.225,0.141l-0.18,0.148l-0.177-0.148L20.1,20.108z
			 M19.803,20.474h0.037l0.558,0.165v0.284h-0.467l-0.127-0.185L19.803,20.474L19.803,20.474z M19.436,19.686l0.303,0.276
			l-0.303,0.072V19.686z M19.153,19.559v0.174h0.127v0.302h-0.877l-0.329-0.092l0.081-0.21l0.422-0.174H19.153z"/>
		<path d="M12.669,23.285l0.847-1.524c0.019-0.033,1.781-3.2,2.931-4.96c2.895-1.705,4.628-4.933,4.434-8.3
			c-0.285-4.941-4.522-8.763-9.529-8.486C6.387,0.302,2.58,4.576,2.867,9.542c0.195,3.356,2.192,6.276,5.233,7.676
			c1.748,1.903,3.574,4.594,3.593,4.622L12.669,23.285z M9.364,15.431l-0.205-0.088c-2.41-1.036-4-3.307-4.152-5.925
			c-0.219-3.787,2.683-7.046,6.469-7.265c0.135-0.008,0.271-0.012,0.405-0.012c3.637,0,6.649,2.847,6.859,6.481
			c0.152,2.637-1.246,5.161-3.562,6.432l-0.229,0.126l-0.146,0.218c-0.703,1.052-1.651,2.666-2.325,3.843
			c-0.764-1.045-1.871-2.485-2.961-3.647L9.364,15.431z"/>
		<circle cx="11.873" cy="8.892" r="3.549"/>
	</g>
</g>
</svg>