<!DOCTYPE svg PUBLIC "-//W3C//DTD SVG 1.1//EN" "http://www.w3.org/Graphics/SVG/1.1/DTD/svg11.dtd">
<!-- Uploaded to: SVG Repo, www.svgrepo.com, Transformed by: SVG Repo Mixer Tools -->
<svg fill="#000000" version="1.1" id="Capa_1" xmlns="http://www.w3.org/2000/svg" xmlns:xlink="http://www.w3.org/1999/xlink" viewBox="-2.9 -2.9 63.80 63.80" xml:space="preserve" width="800px" height="800px" stroke="#000000" stroke-width="1.1600000000000001" transform="matrix(1, 0, 0, 1, 0, 0)">
<g id="SVGRepo_bgCarrier" stroke-width="0"/>
<g id="SVGRepo_tracerCarrier" stroke-linecap="round" stroke-linejoin="round"/>
<g id="SVGRepo_iconCarrier"> <g> <g> <path d="M47.08,8.747L12.985,6.022C9.525,5.75,6.268,6.842,3.812,9.11C1.354,11.379,0,14.543,0,18.019 c0,3.477,1.354,6.641,3.811,8.91c1.733,1.6,3.868,2.606,6.189,2.969v15.625c0,3.582,2.243,6.496,5,6.496s5-2.914,5-6.496V29.515 c0-0.021-0.011-0.038-0.012-0.059L47.08,27.29C47.6,27.248,48,26.815,48,26.293V9.745C48,9.223,47.6,8.789,47.08,8.747z M18,45.523c0,2.438-1.374,4.496-3,4.496s-3-2.059-3-4.496V30.056c0.326-0.002,0.655-0.014,0.985-0.04L18,29.615V45.523z M46,25.371l-33.174,2.651c-2.898,0.228-5.618-0.679-7.659-2.563C3.125,23.574,2,20.931,2,18.019c0-2.911,1.125-5.553,3.168-7.439 c1.833-1.692,4.212-2.599,6.776-2.599c0.292,0,0.586,0.012,0.882,0.035L46,10.667V25.371z"/> <path d="M52,13.019h4c0.552,0,1-0.447,1-1s-0.448-1-1-1h-4c-0.552,0-1,0.447-1,1S51.448,13.019,52,13.019z"/> <path d="M57,17.019h-4c-0.552,0-1,0.447-1,1s0.448,1,1,1h4c0.552,0,1-0.447,1-1S57.552,17.019,57,17.019z"/> <path d="M55,23.019h-4c-0.552,0-1,0.447-1,1s0.448,1,1,1h4c0.552,0,1-0.447,1-1S55.552,23.019,55,23.019z"/> <rect x="14" y="32.019" width="2" height="5"/> </g> </g> </g>
</svg>