<!DOCTYPE svg PUBLIC "-//W3C//DTD SVG 1.1//EN" "http://www.w3.org/Graphics/SVG/1.1/DTD/svg11.dtd">
<!-- Uploaded to: SVG Repo, www.svgrepo.com, Transformed by: SVG Repo Mixer Tools -->
<svg fill="#000000" height="800px" width="800px" version="1.1" id="Layer_1" xmlns="http://www.w3.org/2000/svg" xmlns:xlink="http://www.w3.org/1999/xlink" viewBox="0 0 512 512" xml:space="preserve" stroke="#000000" stroke-width="0.00512">
<g id="SVGRepo_bgCarrier" stroke-width="0"/>
<g id="SVGRepo_tracerCarrier" stroke-linecap="round" stroke-linejoin="round"/>
<g id="SVGRepo_iconCarrier"> <g> <g> <path d="M370.867,491.115v-57.75h20.885v-0.005c0.034,0,0.068,0.005,0.102,0.005c2.769,0,5.425-1.101,7.384-3.059l88.659-88.659 c4.078-4.078,4.078-10.69,0-14.769l-22.139-22.139c-4.079-4.078-10.689-4.078-14.769,0l-76.412,76.413h-92.472V182.473 c14.821,5.852,26.44,16.663,32.123,30.375c1.493,3.604,4.878,6.064,8.765,6.397c3.877,0.333,7.641-1.54,9.725-4.839 c0.233-0.369,23.705-36.883,59.034-36.883c23.248,0,44.058,13.875,53.019,35.349c1.646,3.946,5.488,6.422,9.632,6.422 c0.68,0,1.368-0.067,2.056-0.205c4.88-0.977,8.392-5.262,8.392-10.239C464.851,93.69,371.161,0,256.001,0 S47.151,93.69,47.151,208.85c0,4.977,3.512,9.263,8.392,10.239c4.882,0.974,9.771-1.625,11.687-6.219 c8.959-21.473,29.77-35.348,53.017-35.348c35.329,0,58.802,36.514,59.021,36.862c2.072,3.315,5.811,5.195,9.721,4.872 c3.897-0.324,7.286-2.798,8.782-6.41c5.683-13.715,17.301-24.526,32.123-30.378v198.683H57.592 c-5.766,0-10.443,4.675-10.443,10.443v31.328c0,5.767,4.676,10.443,10.443,10.443h26.106v57.75H0.158V512h511.684v-20.885H370.867 z M115.025,491.115h-10.443v-57.75h10.443V491.115z M229.893,491.115H135.91v-57.75h93.983V491.115z M229.893,412.48H125.467 H94.14H68.034v-10.443h161.859V412.48z M440.68,173.758c-13.586-10.872-30.708-17.121-48.928-17.121 c-23.935,0-43.07,11.603-56.254,23.247c0.018-15.284-0.807-35.053-3.901-56.094c-3.95-26.865-10.816-50.214-20.408-69.396 c-5.813-11.628-12.651-21.725-20.437-30.281C366.473,38.327,426.334,98.083,440.68,173.758z M180.402,123.792 c-3.094,21.041-3.919,40.81-3.901,56.094c-13.185-11.646-32.32-23.248-56.255-23.248c-18.219,0-35.343,6.249-48.927,17.121 C85.665,98.083,145.525,38.327,221.247,24.115c-7.786,8.556-14.624,18.652-20.437,30.281 C191.219,73.578,184.353,96.926,180.402,123.792z M261.22,491.114h-10.443V177.725c1.703-0.12,3.435-0.203,5.221-0.203 c1.806,0,3.531,0.08,5.221,0.198V491.114z M255.998,156.639c-6.495,0-12.694,0.636-18.427,1.891 c-15.483,3.063-29.295,10.001-40.14,19.752c0.128-44.316,7.656-125.992,58.567-155.936 c50.823,29.905,58.39,111.585,58.548,155.918c-10.844-9.743-24.65-16.672-40.131-19.734 C268.605,157.257,262.579,156.639,255.998,156.639z M318.654,491.115h-36.549v-57.75h36.549V491.115z M349.982,491.115h-10.443 v-57.75h10.443V491.115z M329.097,412.48h-46.991v-10.443h96.798c2.769,0,5.425-1.101,7.384-3.059l72.087-72.088l7.371,7.371 l-78.218,78.218h-27.104H329.097z"/> </g> </g> </g>
</svg>