<?xml version="1.0" encoding="iso-8859-1"?>
<!-- Uploaded to: SVG Repo, www.svgrepo.com, Generator: SVG Repo Mixer Tools -->
<svg fill="#000000" height="800px" width="800px" version="1.1" id="Layer_1" xmlns="http://www.w3.org/2000/svg" xmlns:xlink="http://www.w3.org/1999/xlink" 
	 viewBox="0 0 512 512" xml:space="preserve">
<g>
	<g>
		<path d="M495.109,403.661h-14.061c-2.903-69.263-23.763-128.899-60.797-173.256c-19.94-23.883-43.941-42.441-71.339-55.159
			c-13.598-6.313-27.888-11.098-42.762-14.365c5.12-8.556,8.073-18.551,8.073-29.227c0-31.483-25.614-57.097-57.097-57.097
			s-57.097,25.614-57.097,57.097c0,10.678,2.954,20.677,8.077,29.235C107.452,183.068,41.22,274.556,35.918,403.661H16.891
			C7.562,403.661,0,411.224,0,420.552c0,9.328,7.562,16.891,16.891,16.891h18.671h445.853h13.695c9.328,0,16.89-7.562,16.89-16.891
			C512,411.224,504.438,403.661,495.109,403.661z M257.126,108.339c12.856,0,23.316,10.46,23.316,23.316
			s-10.46,23.317-23.316,23.317s-23.316-10.46-23.316-23.317S244.27,108.339,257.126,108.339z M69.713,403.66
			c2.726-61.416,20.453-113.61,51.68-151.726c33.485-40.873,80.421-62.477,135.734-62.477c55.564,0,103.005,21.646,137.195,62.597
			c31.973,38.294,50.128,90.45,52.93,151.606H69.713z"/>
	</g>
</g>
</svg>