<?xml version="1.0" encoding="iso-8859-1"?>
<!-- Uploaded to: SVG Repo, www.svgrepo.com, Generator: SVG Repo Mixer Tools -->
<svg fill="#000000" height="800px" width="800px" version="1.1" id="Layer_1" xmlns="http://www.w3.org/2000/svg" xmlns:xlink="http://www.w3.org/1999/xlink" 
	 viewBox="0 0 511.999 511.999" xml:space="preserve">
<g>
	<g>
		<path d="M492.648,339.696H49.818C22.349,339.696,0,362.044,0,389.514v33.212c0,27.47,22.349,49.818,49.818,49.818h442.83
			c9.171,0,16.606-7.435,16.606-16.606v-99.637C509.254,347.131,501.819,339.696,492.648,339.696z M166.061,439.333H49.818
			c-9.157,0-16.606-7.45-16.606-16.606v-33.212c0-9.157,7.45-16.606,16.606-16.606h116.243V439.333z M409.618,439.333H199.273
			v-66.424h210.344V439.333z M476.042,439.333H442.83v-66.424h33.212V439.333z"/>
	</g>
</g>
<g>
	<g>
		<path d="M489.588,162.679c-19.723-25.567-19.723-68.765,0-94.331c6.051-7.844,4.598-19.108-3.246-25.158
			c-7.844-6.052-19.108-4.595-25.157,3.246c-29.881,38.735-29.881,99.42,0,138.155c19.723,25.567,19.723,68.764,0,94.331
			c-6.051,7.844-4.598,19.108,3.246,25.158c7.839,6.049,19.106,4.599,25.157-3.246C519.469,262.099,519.469,201.414,489.588,162.679
			z"/>
	</g>
</g>
<g>
	<g>
		<path d="M423.164,162.679c-19.723-25.567-19.723-68.764,0-94.331c6.051-7.844,4.598-19.108-3.246-25.158
			c-7.844-6.052-19.107-4.595-25.157,3.246c-29.881,38.735-29.881,99.42,0,138.155c19.723,25.567,19.723,68.764,0,94.331
			c-6.051,7.844-4.598,19.108,3.246,25.158c7.839,6.049,19.106,4.599,25.157-3.246C453.045,262.099,453.045,201.414,423.164,162.679
			z"/>
	</g>
</g>
</svg>