<?xml version="1.0" encoding="iso-8859-1"?>
<!-- Uploaded to: SVG Repo, www.svgrepo.com, Generator: SVG Repo Mixer Tools -->
<svg fill="#000000" height="800px" width="800px" version="1.1" id="Layer_1" xmlns="http://www.w3.org/2000/svg" xmlns:xlink="http://www.w3.org/1999/xlink" 
	 viewBox="0 0 512 512" xml:space="preserve">
<g>
	<g>
		<path d="M33.391,361.6V203.872H0v191.12h17.802V512h33.391v-71.726h68.51V512h33.391V394.991h17.469V361.6H33.391z
			 M119.703,406.883h-0.001H51.193v-11.892h68.51V406.883z"/>
	</g>
</g>
<g>
	<g>
		<path d="M478.609,203.872V361.6H341.436v33.391h17.469V512h33.391v-71.726h68.51V512h33.391V394.991H512v-191.12H478.609z
			 M460.807,406.883h-68.51v-11.892h68.51V406.883z"/>
	</g>
</g>
<g>
	<g>
		<path d="M272.696,261.565V139.13h237.526l-26.049-28.055c-52.203-56.224-128.55-89.972-211.477-93.977V0h-33.391v17.099
			C156.377,21.103,80.03,54.851,27.827,111.075L1.779,139.13h237.526v122.435H111.209h-26.91v33.391h26.91v44.522h128.096v139.13
			h-41.668V512h116.726v-33.391h-41.667v-139.13h128.096v-44.522h26.91v-33.391h-26.91H272.696z M83.332,105.739
			C130.39,70.014,191.294,50.087,256,50.087s125.61,19.927,172.668,55.652H83.332z M367.4,306.087H144.6v-11.13h222.8V306.087z"/>
	</g>
</g>
</svg>