<!DOCTYPE svg PUBLIC "-//W3C//DTD SVG 1.1//EN" "http://www.w3.org/Graphics/SVG/1.1/DTD/svg11.dtd">

<!-- Uploaded to: SVG Repo, www.svgrepo.com, Transformed by: SVG Repo Mixer Tools -->
<svg width="800px" height="800px" viewBox="0 0 1024 1024" fill="currentColor" class="icon" version="1.1" xmlns="http://www.w3.org/2000/svg" stroke="currentColor" stroke-width="11.264">

<g id="SVGRepo_bgCarrier" stroke-width="0"/>

<g id="SVGRepo_tracerCarrier" stroke-linecap="round" stroke-linejoin="round"/>

<g id="SVGRepo_iconCarrier">

<path d="M192 997.6c-68.8 0-124.8-56-124.8-124.8V151.2c0-68.8 56-124.8 124.8-124.8h640c68.8 0 124.8 56 124.8 124.8v721.6c0 68.8-56 124.8-124.8 124.8H192z m-76.8-124.8c0 42.4 34.4 76.8 76.8 76.8h640c42.4 0 76.8-34.4 76.8-76.8V253.6H115.2v619.2z m793.6-667.2v-54.4c0-42.4-34.4-76.8-76.8-76.8H192c-42.4 0-76.8 34.4-76.8 76.8v54.4h793.6z" fill=""/>

<path d="M512.8 900C348.8 900 216 766.4 216 602.4c0-164 133.6-297.6 297.6-297.6s297.6 133.6 297.6 297.6c-0.8 164-134.4 297.6-298.4 297.6zM274.4 672.8c31.2 105.6 129.6 178.4 239.2 178.4 132 0 240.8-102.4 248.8-233.6-33.6 32-85.6 68.8-149.6 68.8-55.2 0-93.6-28-127.2-52.8-28.8-20.8-52.8-39.2-84.8-39.2-60.8 0.8-115.2 64-126.4 78.4zM400 547.2c48 0 80.8 24.8 113.6 48.8 30.4 22.4 58.4 43.2 98.4 43.2 40.8 0 76.8-22.4 99.2-40.8 24.8-20 39.2-39.2 40.8-41.6 1.6-1.6 2.4-3.2 4.8-4.8-24-115.2-126.4-199.2-244-199.2C376 352.8 264 464.8 264 602.4v10.4c31.2-30.4 80-65.6 136-65.6zM232.8 178.4c-19.2 0-35.2-16-35.2-35.2s16-35.2 35.2-35.2 35.2 16 35.2 35.2-15.2 35.2-35.2 35.2zM344.8 178.4c-19.2 0-35.2-16-35.2-35.2s16-35.2 35.2-35.2 35.2 16 35.2 35.2-15.2 35.2-35.2 35.2z" fill=""/>

</g>

</svg>